<?xml version="1.0" encoding="UTF-8"?>
<svg version="1.1" xmlns="http://www.w3.org/2000/svg" fill="#FFFFFF" width="100" height="100" >
<path d="M0 0 C0.67328842 -0.00014603 1.34657684 -0.00029205 2.04026794 -0.0004425 C4.26955366 0.00025512 6.4987562 0.0080405 8.72802734 0.01586914 C10.27216547 0.01773385 11.81630419 0.01915751 13.36044312 0.02015686 C17.42766957 0.02397785 21.49486039 0.03380457 25.56207275 0.04486084 C29.71113605 0.05508395 33.86020509 0.05965641 38.00927734 0.06469727 C46.15252287 0.0754272 54.29573943 0.09249862 62.43896484 0.11352539 C62.47272217 1.30445801 62.50647949 2.49539063 62.54125977 3.72241211 C62.60398903 5.28771247 62.66759261 6.85297796 62.73193359 8.41821289 C62.76184387 9.59516724 62.76184387 9.59516724 62.7923584 10.79589844 C62.91793965 15.30844639 62.91793965 15.30844639 65.02075195 19.16015625 C66.74772309 20.27360757 66.74772309 20.27360757 68.64990234 21.18774414 C71.16156383 22.4874467 72.51720152 24.33406757 73.77099609 26.83618164 C75.58692268 33.02732315 75.77586948 39.9289386 73.26318359 45.91430664 C69.63354297 51.64482453 69.63354297 51.64482453 65.87719727 53.11865234 C63.29619871 54.82358386 63.29619871 54.82358386 62.93965149 57.13542175 C62.72021646 59.69966667 62.64340813 62.22752827 62.62646484 64.80102539 C62.60132812 65.69370117 62.57619141 66.58637695 62.55029297 67.50610352 C62.49139146 69.70901978 62.4551373 71.90994858 62.43896484 74.11352539 C61.64827103 74.12161224 60.85757721 74.1296991 60.04292297 74.13803101 C52.58325087 74.21604389 45.12377248 74.30335461 37.6643343 74.40105247 C33.82956355 74.45095084 29.99481948 74.49728126 26.15991211 74.53540039 C22.45746748 74.57233508 18.75524963 74.61871686 15.0529995 74.6715889 C13.64209162 74.69008946 12.23113521 74.70521339 10.82015419 74.71686935 C8.84053593 74.73380544 6.86104437 74.76397311 4.8815918 74.79467773 C3.75574173 74.8080014 2.62989166 74.82132507 1.46992493 74.83505249 C-1.83483391 75.13868096 -5.12680862 75.67929885 -7.56103516 78.11352539 C-7.81108901 81.07169646 -7.81108901 81.07169646 -7.56103516 84.11352539 C-4.01116995 87.6633906 -0.07668687 87.25208924 4.76806641 87.31884766 C6.68960541 87.34876549 6.68960541 87.34876549 8.64996338 87.37928772 C10.04317098 87.39626949 11.43637984 87.41314838 12.82958984 87.42993164 C14.25877467 87.45051333 15.68795357 87.47151012 17.11712646 87.49290466 C20.87189935 87.54799988 24.62672602 87.59746428 28.3815918 87.64575195 C32.2158688 87.69605884 36.05006804 87.75169687 39.88427734 87.80688477 C47.40244059 87.91431275 54.92066866 88.01579155 62.43896484 88.11352539 C62.43896484 89.43352539 62.43896484 90.75352539 62.43896484 92.11352539 C53.52887519 92.18308494 44.61887925 92.23636678 35.70857716 92.26896191 C31.57100129 92.28460721 27.43361141 92.30582456 23.29614258 92.33984375 C19.30204634 92.37247798 15.30812882 92.39038695 11.31390953 92.39815712 C9.79128901 92.40369336 8.26867809 92.41450439 6.7461338 92.43071556 C4.61073414 92.45254453 2.47606974 92.45549013 0.34057617 92.45410156 C-1.48143562 92.46409431 -1.48143562 92.46409431 -3.34025574 92.47428894 C-6.89603241 92.07600193 -8.7292008 91.2644809 -11.56103516 89.11352539 C-13.97834465 85.48756115 -13.86355352 82.80836635 -13.86743164 78.61621094 C-13.87575516 77.85487854 -13.88407867 77.09354614 -13.89265442 76.30914307 C-13.91677109 73.78945821 -13.92552906 71.27003222 -13.93212891 68.75024414 C-13.94109495 66.9977053 -13.95021679 65.24516726 -13.95948792 63.49263 C-13.97598567 59.81651957 -13.98367928 56.14050028 -13.98657227 52.46435547 C-13.99195271 47.75981608 -14.02961486 43.05613672 -14.07531643 38.35184002 C-14.10510107 34.73064571 -14.11229614 31.10965797 -14.11329842 27.48835182 C-14.11749901 25.75442382 -14.12992697 24.02049511 -14.15081596 22.28668785 C-14.17775696 19.85682916 -14.17289801 17.4289566 -14.16040039 14.99902344 C-14.17523468 14.28659988 -14.19006897 13.57417633 -14.20535278 12.84016418 C-14.12319379 7.21377716 -12.39988005 4.92583882 -8.56103516 1.11352539 C-5.68359248 -0.32519595 -3.21537593 -0.00584614 0 0 Z M41.06396484 27.73852539 C38.85988591 32.31622778 38.64180094 36.1190495 39.43896484 41.11352539 C41.76865415 45.95211087 44.60037936 48.78383608 49.43896484 51.11352539 C54.43344074 51.9106893 58.23626245 51.69260432 62.81396484 49.48852539 C66.39804198 46.24578894 69.03431725 43.64876643 69.82177734 38.71508789 C70.07780403 33.03129545 69.37523416 29.46413884 65.43896484 25.11352539 C61.08835139 21.17725608 57.52119478 20.4746862 51.83740234 20.73071289 C46.90372381 21.51817298 44.3067013 24.15444826 41.06396484 27.73852539 Z " transform="translate(25.56103515625,3.886474609375)"/>
<path d="M0 0 C1.32 0 2.64 0 4 0 C4 3.3 4 6.6 4 10 C7.3 10 10.6 10 14 10 C14 11.32 14 12.64 14 14 C10.7 14 7.4 14 4 14 C4 17.3 4 20.6 4 24 C2.68 24 1.36 24 0 24 C0 20.7 0 17.4 0 14 C-3.3 14 -6.6 14 -10 14 C-10 12.68 -10 11.36 -10 10 C-6.7 10 -3.4 10 0 10 C0 6.7 0 3.4 0 0 Z " transform="translate(78,28)"/>
</svg>
