<?xml version="1.0" encoding="UTF-8"?>
<svg version="1.1" xmlns="http://www.w3.org/2000/svg" width="100" height="100">
<path d="M0 0 C1.1653125 -0.00128906 2.330625 -0.00257813 3.53125 -0.00390625 C4.7584375 -0.00003906 5.985625 0.00382813 7.25 0.0078125 C9.09078125 0.00201172 9.09078125 0.00201172 10.96875 -0.00390625 C12.71671875 -0.00197266 12.71671875 -0.00197266 14.5 0 C15.57765625 0.00112793 16.6553125 0.00225586 17.765625 0.00341797 C20.25 0.1328125 20.25 0.1328125 21.25 1.1328125 C21.35045053 3.80531317 21.38616649 6.45199831 21.37939453 9.125 C21.38114685 9.9623468 21.38289917 10.7996936 21.38470459 11.66241455 C21.38912401 14.44423464 21.3861848 17.22599171 21.3828125 20.0078125 C21.38348551 21.93212903 21.38445552 23.85644548 21.38571167 25.78076172 C21.38718877 29.81934415 21.38503371 33.8579045 21.38037109 37.89648438 C21.3746738 43.08549761 21.37795274 48.27445913 21.38394356 53.46347046 C21.38754886 57.4387247 21.38641073 61.41396659 21.38381577 65.38922119 C21.38314641 67.3030803 21.38397522 69.21694052 21.38629532 71.13079834 C21.38882133 73.800771 21.38498198 76.4706587 21.37939453 79.140625 C21.38141876 79.93962219 21.38344299 80.73861938 21.38552856 81.56182861 C21.3642625 87.01855 21.3642625 87.01855 20.25 88.1328125 C18.33541718 88.23253036 16.41717683 88.26361839 14.5 88.265625 C13.3346875 88.26691406 12.169375 88.26820312 10.96875 88.26953125 C9.7415625 88.26566406 8.514375 88.26179688 7.25 88.2578125 C5.40921875 88.26361328 5.40921875 88.26361328 3.53125 88.26953125 C2.3659375 88.26824219 1.200625 88.26695313 0 88.265625 C-1.07765625 88.26449707 -2.1553125 88.26336914 -3.265625 88.26220703 C-5.75 88.1328125 -5.75 88.1328125 -6.75 87.1328125 C-6.85045053 84.46031183 -6.88616649 81.81362669 -6.87939453 79.140625 C-6.88114685 78.3032782 -6.88289917 77.4659314 -6.88470459 76.60321045 C-6.88912401 73.82139036 -6.8861848 71.03963329 -6.8828125 68.2578125 C-6.88348551 66.33349597 -6.88445552 64.40917952 -6.88571167 62.48486328 C-6.88718877 58.44628085 -6.88503371 54.4077205 -6.88037109 50.36914062 C-6.8746738 45.18012739 -6.87795274 39.99116587 -6.88394356 34.80215454 C-6.88754886 30.8269003 -6.88641073 26.85165841 -6.88381577 22.87640381 C-6.88314641 20.9625447 -6.88397522 19.04868448 -6.88629532 17.13482666 C-6.88882133 14.464854 -6.88498198 11.7949663 -6.87939453 9.125 C-6.88141876 8.32600281 -6.88344299 7.52700562 -6.88552856 6.70379639 C-6.8598071 0.10385153 -6.48778643 0.00679045 0 0 Z M-0.75 16.1328125 C-0.75 17.4528125 -0.75 18.7728125 -0.75 20.1328125 C4.53 20.1328125 9.81 20.1328125 15.25 20.1328125 C15.25 18.8128125 15.25 17.4928125 15.25 16.1328125 C9.97 16.1328125 4.69 16.1328125 -0.75 16.1328125 Z M-0.75 62.1328125 C-0.75 63.4528125 -0.75 64.7728125 -0.75 66.1328125 C4.53 66.1328125 9.81 66.1328125 15.25 66.1328125 C15.25 64.8128125 15.25 63.4928125 15.25 62.1328125 C9.97 62.1328125 4.69 62.1328125 -0.75 62.1328125 Z M-0.75 70.1328125 C-0.75 71.4528125 -0.75 72.7728125 -0.75 74.1328125 C4.53 74.1328125 9.81 74.1328125 15.25 74.1328125 C15.25 72.8128125 15.25 71.4928125 15.25 70.1328125 C9.97 70.1328125 4.69 70.1328125 -0.75 70.1328125 Z " fill="#000000" transform="translate(72.75,5.8671875)"/>
<path d="M0 0 C1.1653125 -0.00128906 2.330625 -0.00257813 3.53125 -0.00390625 C4.7584375 -0.00003906 5.985625 0.00382813 7.25 0.0078125 C9.09078125 0.00201172 9.09078125 0.00201172 10.96875 -0.00390625 C12.71671875 -0.00197266 12.71671875 -0.00197266 14.5 0 C15.57765625 0.00112793 16.6553125 0.00225586 17.765625 0.00341797 C20.25 0.1328125 20.25 0.1328125 21.25 1.1328125 C21.35045053 3.80531317 21.38616649 6.45199831 21.37939453 9.125 C21.38114685 9.9623468 21.38289917 10.7996936 21.38470459 11.66241455 C21.38912401 14.44423464 21.3861848 17.22599171 21.3828125 20.0078125 C21.38348551 21.93212903 21.38445552 23.85644548 21.38571167 25.78076172 C21.38718877 29.81934415 21.38503371 33.8579045 21.38037109 37.89648438 C21.3746738 43.08549761 21.37795274 48.27445913 21.38394356 53.46347046 C21.38754886 57.4387247 21.38641073 61.41396659 21.38381577 65.38922119 C21.38314641 67.3030803 21.38397522 69.21694052 21.38629532 71.13079834 C21.38882133 73.800771 21.38498198 76.4706587 21.37939453 79.140625 C21.38141876 79.93962219 21.38344299 80.73861938 21.38552856 81.56182861 C21.3642625 87.01855 21.3642625 87.01855 20.25 88.1328125 C18.33541718 88.23253036 16.41717683 88.26361839 14.5 88.265625 C13.3346875 88.26691406 12.169375 88.26820312 10.96875 88.26953125 C9.7415625 88.26566406 8.514375 88.26179688 7.25 88.2578125 C5.40921875 88.26361328 5.40921875 88.26361328 3.53125 88.26953125 C2.3659375 88.26824219 1.200625 88.26695313 0 88.265625 C-1.07765625 88.26449707 -2.1553125 88.26336914 -3.265625 88.26220703 C-5.75 88.1328125 -5.75 88.1328125 -6.75 87.1328125 C-6.85045053 84.46031183 -6.88616649 81.81362669 -6.87939453 79.140625 C-6.88114685 78.3032782 -6.88289917 77.4659314 -6.88470459 76.60321045 C-6.88912401 73.82139036 -6.8861848 71.03963329 -6.8828125 68.2578125 C-6.88348551 66.33349597 -6.88445552 64.40917952 -6.88571167 62.48486328 C-6.88718877 58.44628085 -6.88503371 54.4077205 -6.88037109 50.36914062 C-6.8746738 45.18012739 -6.87795274 39.99116587 -6.88394356 34.80215454 C-6.88754886 30.8269003 -6.88641073 26.85165841 -6.88381577 22.87640381 C-6.88314641 20.9625447 -6.88397522 19.04868448 -6.88629532 17.13482666 C-6.88882133 14.464854 -6.88498198 11.7949663 -6.87939453 9.125 C-6.88141876 8.32600281 -6.88344299 7.52700562 -6.88552856 6.70379639 C-6.8598071 0.10385153 -6.48778643 0.00679045 0 0 Z M-0.75 16.1328125 C-0.75 17.4528125 -0.75 18.7728125 -0.75 20.1328125 C4.53 20.1328125 9.81 20.1328125 15.25 20.1328125 C15.25 18.8128125 15.25 17.4928125 15.25 16.1328125 C9.97 16.1328125 4.69 16.1328125 -0.75 16.1328125 Z M-0.75 62.1328125 C-0.75 63.4528125 -0.75 64.7728125 -0.75 66.1328125 C4.53 66.1328125 9.81 66.1328125 15.25 66.1328125 C15.25 64.8128125 15.25 63.4928125 15.25 62.1328125 C9.97 62.1328125 4.69 62.1328125 -0.75 62.1328125 Z M-0.75 70.1328125 C-0.75 71.4528125 -0.75 72.7728125 -0.75 74.1328125 C4.53 74.1328125 9.81 74.1328125 15.25 74.1328125 C15.25 72.8128125 15.25 71.4928125 15.25 70.1328125 C9.97 70.1328125 4.69 70.1328125 -0.75 70.1328125 Z " fill="#000000" transform="translate(12.75,5.8671875)"/>
<path d="M0 0 C1.1653125 -0.00128906 2.330625 -0.00257812 3.53125 -0.00390625 C4.7584375 -0.00003906 5.985625 0.00382812 7.25 0.0078125 C9.09078125 0.00201172 9.09078125 0.00201172 10.96875 -0.00390625 C12.71671875 -0.00197266 12.71671875 -0.00197266 14.5 0 C15.57765625 0.00112793 16.6553125 0.00225586 17.765625 0.00341797 C20.25 0.1328125 20.25 0.1328125 21.25 1.1328125 C21.34948193 3.24419151 21.37799638 5.35893536 21.37939453 7.47265625 C21.38114685 8.13443878 21.38289917 8.79622131 21.38470459 9.47805786 C21.38912217 11.6755024 21.38618547 13.87286708 21.3828125 16.0703125 C21.38348557 17.59106461 21.38445561 19.11181662 21.38571167 20.63256836 C21.38718851 23.82374086 21.38503452 27.01488542 21.38037109 30.20605469 C21.3746738 34.3054578 21.37795288 38.40479546 21.38394356 42.50419617 C21.38754954 45.64563494 21.38641042 48.78705808 21.38381577 51.92849731 C21.3831466 53.44043994 21.38397457 54.95238396 21.38629532 56.46432495 C21.38882245 58.57391137 21.38498044 60.68339037 21.37939453 62.79296875 C21.37859894 63.99574463 21.37780334 65.19852051 21.37698364 66.43774414 C21.25 69.1328125 21.25 69.1328125 20.25 70.1328125 C18.33541718 70.23253036 16.41717683 70.26361839 14.5 70.265625 C13.3346875 70.26691406 12.169375 70.26820312 10.96875 70.26953125 C9.7415625 70.26566406 8.514375 70.26179688 7.25 70.2578125 C5.40921875 70.26361328 5.40921875 70.26361328 3.53125 70.26953125 C2.3659375 70.26824219 1.200625 70.26695313 0 70.265625 C-1.07765625 70.26449707 -2.1553125 70.26336914 -3.265625 70.26220703 C-5.75 70.1328125 -5.75 70.1328125 -6.75 69.1328125 C-6.84948193 67.02143349 -6.87799638 64.90668964 -6.87939453 62.79296875 C-6.88202301 61.80029495 -6.88202301 61.80029495 -6.88470459 60.78756714 C-6.88912217 58.5901226 -6.88618547 56.39275792 -6.8828125 54.1953125 C-6.88348557 52.67456039 -6.88445561 51.15380838 -6.88571167 49.63305664 C-6.88718851 46.44188414 -6.88503452 43.25073958 -6.88037109 40.05957031 C-6.8746738 35.9601672 -6.87795288 31.86082954 -6.88394356 27.76142883 C-6.88754954 24.61999006 -6.88641042 21.47856692 -6.88381577 18.33712769 C-6.8831466 16.82518506 -6.88397457 15.31324104 -6.88629532 13.80130005 C-6.88882245 11.69171363 -6.88498044 9.58223463 -6.87939453 7.47265625 C-6.87859894 6.26988037 -6.87780334 5.06710449 -6.87698364 3.82788086 C-6.647941 -1.03326159 -4.31543492 0.00451675 0 0 Z M-0.75 16.1328125 C-0.75 17.4528125 -0.75 18.7728125 -0.75 20.1328125 C4.53 20.1328125 9.81 20.1328125 15.25 20.1328125 C15.25 18.8128125 15.25 17.4928125 15.25 16.1328125 C9.97 16.1328125 4.69 16.1328125 -0.75 16.1328125 Z M-0.75 54.1328125 C-0.75 55.4528125 -0.75 56.7728125 -0.75 58.1328125 C4.53 58.1328125 9.81 58.1328125 15.25 58.1328125 C15.25 56.8128125 15.25 55.4928125 15.25 54.1328125 C9.97 54.1328125 4.69 54.1328125 -0.75 54.1328125 Z " fill="#000000" transform="translate(42.75,23.8671875)"/>
</svg>
