<?xml version="1.0" encoding="UTF-8"?>
<svg version="1.1" xmlns="http://www.w3.org/2000/svg" width="64" height="64">
<path d="M0 0 C0.0825 0.94875 0.165 1.8975 0.25 2.875 C0.4975 3.90625 0.745 4.9375 1 6 C2.98562946 7.22236202 2.98562946 7.22236202 5 8 C5.28599272 11.20617626 5.5222522 14.41420253 5.75 17.625 C5.83121094 18.52863281 5.91242187 19.43226562 5.99609375 20.36328125 C6.3943526 26.42566602 5.63041344 28.97652094 2 34 C2 36.31 2 38.62 2 41 C7.28 42.65 12.56 44.3 18 46 C18 47.98 18 49.96 18 52 C16.34591544 53.65408456 14.40446108 53.12742355 12.12890625 53.12939453 C10.57224243 53.13412277 10.57224243 53.13412277 8.98413086 53.13894653 C7.29042358 53.13591019 7.29042358 53.13591019 5.5625 53.1328125 C3.83688843 53.13424759 3.83688843 53.13424759 2.07641602 53.13571167 C-0.36149144 53.13639369 -2.7994007 53.1345379 -5.23730469 53.13037109 C-8.98376518 53.12502317 -12.73010577 53.13031539 -16.4765625 53.13671875 C-18.83854193 53.13605797 -21.20052129 53.13477682 -23.5625 53.1328125 C-24.69163818 53.13483673 -25.82077637 53.13686096 -26.98413086 53.13894653 C-28.54079468 53.13421829 -28.54079468 53.13421829 -30.12890625 53.12939453 C-31.04744385 53.12859894 -31.96598145 53.12780334 -32.91235352 53.12698364 C-35 53 -35 53 -36 52 C-36 50.02 -36 48.04 -36 46 C-28.08 43.525 -28.08 43.525 -20 41 C-19.32476681 34.37659703 -19.32476681 34.37659703 -21.99609375 31.1875 C-24.81689982 26.7006038 -24.40795134 23.16278923 -24.0625 18 C-24.03865234 17.1234375 -24.01480469 16.246875 -23.99023438 15.34375 C-23.65421798 9.23101343 -22.4600225 6.23164786 -18 2 C-12.4879562 -0.95768204 -6.09112659 -0.17741145 0 0 Z M-18 12 C-20.69226518 20.21221139 -20.69226518 20.21221139 -18.796875 28.3359375 C-16.25181192 32.30777837 -13.91601124 35.30987054 -10 38 C-5.29609277 36.08359335 -2.42211679 32.61173236 0.875 28.875 C2.66050554 24.3120414 1.97651524 19.74307404 1 15 C0.34 14.01 -0.32 13.02 -1 12 C-3.95064148 11.7791436 -6.68368231 11.71939011 -9.625 11.8125 C-10.82769531 11.83280273 -10.82769531 11.83280273 -12.0546875 11.85351562 C-14.03674378 11.88890949 -16.01845551 11.94271766 -18 12 Z M-15 39 C-15.04241723 41.33294775 -15.04092937 43.66702567 -15 46 C-13.96966611 47.25173779 -13.96966611 47.25173779 -11.75 47.1328125 C-10.38875 47.12894531 -10.38875 47.12894531 -9 47.125 C-8.0925 47.12757812 -7.185 47.13015625 -6.25 47.1328125 C-4.03033389 47.25173779 -4.03033389 47.25173779 -3 46 C-2.95907063 43.66702567 -2.95758277 41.33294775 -3 39 C-3.99 39.495 -3.99 39.495 -5 40 C-6.875 40.1328125 -6.875 40.1328125 -9 40.125 C-10.051875 40.12886719 -10.051875 40.12886719 -11.125 40.1328125 C-13 40 -13 40 -15 39 Z " fill="#322ED4" transform="translate(41,5)"/>
</svg>
